<svg xmlns="http://www.w3.org/2000/svg" viewBox="0 0 1600 500"><defs><style>.cls-1{fill:#3e002e;}.cls-2{fill:#950461;}.cls-3{fill:#a91a47;}.cls-4{fill:#ed2061;}.cls-5{fill:#ffa402;}.cls-6{fill:#6b0049;}.cls-7{font-size:108.31px;font-family:Shrikhand-Regular, Shrikhand;}.cls-13,.cls-7{fill:#fdd9b4;}.cls-8{letter-spacing:0.01em;}.cls-9{letter-spacing:0.03em;}.cls-10{letter-spacing:-0.07em;}.cls-11{letter-spacing:-0.1em;}.cls-12{letter-spacing:-0.02em;}.cls-13{font-size:33.92px;font-family:Kollektif;}</style></defs><g id="Layer_2" data-name="Layer 2"><rect class="cls-1" width="1600" height="500"/><path class="cls-2" d="M221.43,500a1265.26,1265.26,0,0,0,318.63-55.66C706.28,392.55,700,356.09,800.19,339.79c234.53-38.14,350.88,148.28,501.59,72.19,68-34.34,97.14-99,188-105.79,45.49-3.41,84.14,9.37,110.27,21.16V0H0V500"/><path class="cls-3" d="M0,468.37a1698.73,1698.73,0,0,0,200.16-34.2c50.36-11.73,125.93-31.76,364.77-121.59,219.34-82.49,234.69-95.33,293.84-95,140.28.83,147.22,75,267.24,64.6,136.85-11.85,178.41-109.09,328-112.73,61.49-1.49,112.35,13.52,146,26.6V0H0"/><path class="cls-4" d="M0,377.06a1394,1394,0,0,0,195.22-25.5c294-59.78,321.91-165.49,539.41-196.31,227.35-32.23,272.86,71.77,444,0,69.68-29.22,130.57-75.16,242.63-86.79,74.52-7.74,137.32,3.26,178.73,13.76V0H0"/><path class="cls-5" d="M0,160.7c87.8,40.2,159.18,46.72,208.18,45.23,191.75-5.85,241-140.52,456.41-152.14,38.74-2.09,120.31-2.22,217.22,16.86,76.45,15.06,76.29,25.1,123.46,32.63,111.17,17.73,141.32-37.57,353.27-79.53A1166.47,1166.47,0,0,1,1532.36,2.2C1560.55.86,1584,.8,1600,1V0H0Z"/></g><g id="Layer_3" data-name="Layer 3"><path class="cls-6" d="M1559.3,438.87c1.9-3.18,3.32-5.83,4.27-7.68,2.5-4.86,3.57-7.67,6.08-8.22a3,3,0,0,1,2.35.32c1.83,1.37.63,5.63.32,6.73-1,3.65-2.77,5.37-4.06,7.46-1.59,2.6-3.06,6.7-2.4,13.23"/><path class="cls-2" d="M1549.7,434.71a79.73,79.73,0,0,0,6-19.1c.59-3.36,1.24-8.6,3.74-9.18a3.85,3.85,0,0,1,2.88,1c1.27,1.06,1.82,2.79,1.81,5.45,0,5.17-2.17,8.4-3.52,12.05a28.74,28.74,0,0,0-1.28,14"/><path class="cls-3" d="M1542.37,440.91c-.89-8.16-1.41-13-1.82-16.64-.6-5.51-.08-11.13-.85-16.63-.33-2.36-.86-5.45.77-6.69,1.15-.87,3.08-.57,4.35.19,2.19,1.3,2.78,4.17,3.2,8,1.36,12.45-1,17.9,2.7,22,.07.08,1.14.92,3.27,2.6,6.64,5.24,7.18,5.39,8.1,6.29,4.24,4.14,4.5,12.17,2.78,17.81-3.14,10.29-13.15,13.67-14.08,14"/><path class="cls-4" d="M1533.53,450c-.93-5.48-2-9.83-2.74-12.69-3.32-12.53-4.58-16.49-4.58-16.49-1.6-5-3.17-9.36-1.42-10.84a2.78,2.78,0,0,1,1.81-.52c2.86,0,5,3.41,5.76,4.71,3.62,5.92,1.25,9.58,4.44,18,1.06,2.82,1.71,4.53,3.4,6.28,3.55,3.66,6.93,2.6,11.38,5.1s9.19,7.92,9,14.64A15.47,15.47,0,0,1,1552,471.4c-6.32,3.08-14.38,1.34-19.48-4.44"/><path class="cls-5" d="M1516,433a2.9,2.9,0,0,0-.52,1.18,3.87,3.87,0,0,0,.92,2.87c1.95,2.69,2,7.68,8.36,19,3.43,6.07,5.14,9.11,7.72,11,1.6,1.16,7.91,5.77,13.47,2.87a10.46,10.46,0,0,0,5.23-10.07c-.66-5.74-6.92-9.3-11.12-10.33s-5.77.49-8.24-1.3c-2.08-1.52-1.55-3.08-4.44-8.63-3.19-6.15-5.26-7-5.88-7.19C1519.8,431.71,1517.09,431.61,1516,433Z"/></g><g id="Layer_1" data-name="Layer 1"><text class="cls-7" transform="translate(284.73 271.8)">LE<tspan class="cls-8" x="143.18" y="0">G</tspan><tspan x="226.25" y="0">O </tspan><tspan class="cls-9" x="327.3" y="0">IN</tspan><tspan x="456.29" y="0">N</tspan><tspan class="cls-10" x="535.03" y="0">O</tspan><tspan class="cls-11" x="606.84" y="0">V</tspan><tspan class="cls-12" x="675.4" y="0">A</tspan><tspan x="748.83" y="0">TIVE</tspan></text><text class="cls-13" transform="translate(1103.52 315.02)">Designed by you</text></g></svg>