<svg id="Layer_1" data-name="Layer 1" xmlns="http://www.w3.org/2000/svg" viewBox="0 0 1920.05 951.48"><defs><style>.cls-1{fill:#3e002e;}.cls-2{fill:#950461;}.cls-3{fill:#a91a47;}.cls-4{fill:#ed2061;}.cls-5{fill:#ffa402;}</style></defs><g id="Layer_2" data-name="Layer 2"><rect class="cls-1" y="4.2" width="1920" height="947.21"/><path class="cls-2" d="M265.38,949.71c256.34,2.69,426.11-63,534.56-124.56,145.83-82.81,180.66-152.51,299.78-161.37,195.1-14.5,272.09,164.59,416.66,121.39,124.53-37.22,141.89-192.39,271-202.62,54.39-4.32,101.15,19.29,132.33,40.06V2.51H-.33v947.2" transform="translate(0.33 1.69)"/><path class="cls-3" d="M-.33,889.79c271.13-3.74,457.83-72.22,577.12-132.86,238-121,325.29-270.51,512.07-254,159.42,14,187,131,324.16,108.21,130.39-21.68,167.67-137.75,343-174.09,67.44-14,125.7-10,163.7-4.69V2.51H-.33" transform="translate(0.33 1.69)"/><path class="cls-4" d="M-.33,716.8C53.54,725,141,732.53,243.24,712.24,552.41,650.9,596.06,414.49,875.11,359.38c215.89-42.63,246.19,87.68,446.3,21.18C1490.68,324.3,1559,201.12,1739.53,194.72c77.67-2.76,141.31,17.35,180.14,32.94V2.51H-.33" transform="translate(0.33 1.69)"/><path class="cls-5" d="M-.33,306.92C55,327.55,139.59,351.08,240.89,345.26c264.67-15.18,328-212.52,556.28-240.86,256.94-31.89,303,202.07,526.59,149.11C1503.13,211,1577.19,35.8,1844.22,6.44a655.78,655.78,0,0,1,75.45-3.93v-4.2H-.33Z" transform="translate(0.33 1.69)"/></g></svg>