<?xml version="1.0" encoding="utf-8"?>
<!-- Generator: Adobe Illustrator 25.2.1, SVG Export Plug-In . SVG Version: 6.00 Build 0)  -->
<svg version="1.1" id="Layer_3" xmlns="http://www.w3.org/2000/svg" xmlns:xlink="http://www.w3.org/1999/xlink" x="0px" y="0px"
	 viewBox="0 0 1000 1000" style="enable-background:new 0 0 1000 1000;" xml:space="preserve">
<style type="text/css">
	.st0{fill:#3E002E;}
	.st1{fill:#950461;}
	.st2{fill:#A91A47;}
	.st3{fill:#ED2061;}
	.st4{fill:#FFA402;}
</style>
<path class="st0" d="M661.9,507.1c20.4-34.1,35.6-62.6,45.8-82.5c26.8-52.2,38.3-82.3,65.3-88.2c3.1-0.7,15.9-3.5,25.2,3.4
	c19.6,14.6,6.8,60.4,3.4,72.2c-11.1,39.2-29.7,57.7-43.5,80.2c-17.1,27.9-32.9,71.9-25.8,142"/>
<path class="st1" d="M558.8,462.5c38.4-85.8,55.6-155.7,64.1-205c6.3-36.1,13.3-92.3,40.1-98.5c14.2-3.3,28.8,8.5,30.9,10.3
	c13.6,11.3,19.6,29.9,19.5,58.4c-0.3,55.6-23.4,90.2-37.8,129.4c-12.3,33.4-22.8,82.4-13.7,150"/>
<path class="st2" d="M480.1,529c-9.5-87.6-15.1-139.2-19.5-178.6c-6.5-59.2-0.9-119.5-9.2-178.6c-3.5-25.4-9.2-58.5,8.3-71.8
	c12.4-9.4,33-6.2,46.7,2c23.5,14,29.9,44.8,34.3,85.8c14.6,133.6-10.4,192.1,29,236.5c0.8,0.9,12.2,9.9,35.1,27.9
	c71.3,56.2,77.1,57.9,87,67.5c45.5,44.4,48.2,130.5,29.8,191.1c-33.7,110.5-141.1,146.7-151.1,149.9"/>
<path class="st3" d="M385.3,626.1c-10-58.8-21.4-105.5-29.5-136.1c-35.6-134.5-49.1-177-49.1-177c-17.2-54.1-34.1-100.5-15.2-116.4
	c6.6-5.6,15.5-5.6,19.5-5.6c30.6,0,53.2,36.6,61.8,50.5c38.9,63.6,13.5,102.8,47.7,193.7c11.4,30.2,18.3,48.6,36.5,67.4
	c38,39.3,74.3,27.9,122.1,54.7c46.2,25.9,98.6,85.1,96.8,157.2c-1.5,58.4-38.1,115.3-92.6,141.8c-67.9,33-154.3,14.4-209.1-47.7"/>
<path class="st4" d="M197.2,443.7c-4.3,5.3-5.5,11.9-5.6,12.6c-2.6,14.6,7.2,27.3,9.8,30.9c20.9,28.9,21.5,82.4,89.8,203.5
	c36.8,65.2,55.1,97.7,82.8,117.9c17.2,12.5,84.9,61.9,144.6,30.9c38.6-20.1,60.8-67.2,56.1-108.1c-7.1-61.7-74.3-99.8-119.3-110.9
	c-43.7-10.7-61.9,5.2-88.4-14c-22.4-16.3-16.7-33-47.7-92.6c-34.3-66-56.5-74.9-63.2-77.2C237.8,430.3,208.8,429.2,197.2,443.7z"/>
</svg>
