<svg id="Layer_2" data-name="Layer 2" xmlns="http://www.w3.org/2000/svg" xmlns:xlink="http://www.w3.org/1999/xlink" viewBox="0 0 17.17 11.05"><defs><style>.cls-1{fill:url(#linear-gradient);}</style><linearGradient id="linear-gradient" x1="1.41" y1="9.66" x2="18.59" y2="9.66" gradientUnits="userSpaceOnUse"><stop offset="0" stop-color="#4dd4f7"/><stop offset="1" stop-color="#125699"/></linearGradient></defs><path class="cls-1" d="M1.41,5.72v9a.5.5,0,0,0,.5.5H18.09a.5.5,0,0,0,.5-.5V5.78a.5.5,0,0,0-.77-.42L14.34,7.59a.5.5,0,0,1-.61-.06L10.3,4.27a.5.5,0,0,0-.68,0L6.27,7.38a.5.5,0,0,1-.6.06L2.17,5.3A.5.5,0,0,0,1.41,5.72Z" transform="translate(-1.41 -4.13)"/></svg>