<svg id="Layer_2" data-name="Layer 2" xmlns="http://www.w3.org/2000/svg" viewBox="0 0 15.55 17.54"><defs><style>.cls-1{fill:#f9d11f;}.cls-1,.cls-2,.cls-3{stroke:#000;stroke-miterlimit:10;}.cls-1,.cls-2{stroke-width:1.5px;}.cls-2,.cls-3{fill:none;stroke-linecap:round;}</style></defs><path class="cls-1" d="M6.07,16.05V17.2a.63.63,0,0,0,.63.63h7a.63.63,0,0,0,.63-.63V16.05" transform="translate(-2.37 -1.04)"/><path class="cls-1" d="M5.85,3.79V2.5a.67.67,0,0,1,.63-.71h7a.67.67,0,0,1,.63.71V3.79" transform="translate(-2.37 -1.04)"/><rect class="cls-1" x="0.75" y="3.49" width="14.05" height="11.52" rx="1.49"/><line class="cls-2" x1="5.38" y1="7.66" x2="5.38" y2="8.31"/><line class="cls-2" x1="9.94" y1="7.66" x2="9.94" y2="8.31"/><path class="cls-3" d="M8.06,11.4a3.2,3.2,0,0,0,4,.08" transform="translate(-2.37 -1.04)"/></svg>