<svg xmlns="http://www.w3.org/2000/svg" viewBox="0 0 55 55"><defs><style>.cls-1{fill:#e3000b;}.cls-2{fill:#ffed00;}.cls-3{fill:#fff;}</style></defs><g id="Layer_3" data-name="Layer 3"><rect width="55" height="55"/><rect class="cls-1" x="0.87" y="0.87" width="53.34" height="53.34"/><path class="cls-2" d="M17.12,17a6.13,6.13,0,0,0-2.53-1.35,7.05,7.05,0,0,0-5,.81C7,17.89,5.8,21.11,3.42,27.55c-1,2.78-1.42,4.36-1.08,6.26a6.88,6.88,0,0,0,2.1,4.1c2.14,1.76,5.78,1.63,9-.38a8.23,8.23,0,0,0,3.62,1.62,8.74,8.74,0,0,0,6.36-1.51,9.54,9.54,0,0,0,11.33-.86,8.75,8.75,0,0,0,2.81,1.83A10,10,0,0,0,43,39c4-1,6-4.88,7.39-7.5.92-1.78,4.63-8.93,1.41-13.38a7.35,7.35,0,0,0-2.43-2.05c-4.41-2.3-9.46.76-10,1.08a10.31,10.31,0,0,0-11.33-.27A9.56,9.56,0,0,0,17.12,17Z"/><path d="M16.4,19.56a3.43,3.43,0,0,0-.87-2.32c-1.37-1.38-3.95-.8-5.39.05S8,19.5,7,22.46c-2.71,7.55-4,11.36-2.31,13.4a5.35,5.35,0,0,0,3.1,1.62,7.34,7.34,0,0,0,5.69-1.4,7.91,7.91,0,0,0,4,1.65,8.24,8.24,0,0,0,6.09-2,8.16,8.16,0,0,0,4.53,1.89,8.82,8.82,0,0,0,7-3.11,7.37,7.37,0,0,0,3.57,2.78,7.68,7.68,0,0,0,5.85-.47c2.9-1.41,4-4.12,5.11-6.75.89-2.15,3.38-8.16.51-11.52a5.48,5.48,0,0,0-1.94-1.42c-4.1-1.79-8.7,2-9,2.29a5.77,5.77,0,0,0-1.87-2.05c-2.44-1.6-6.12-1.12-9.36,1.1A7.47,7.47,0,0,0,24,16.37C19.68,15.63,16.54,19.38,16.4,19.56Z"/><path class="cls-3" d="M10,31.09c1.23-2.49,2.07-4.17,2.62-5.28a40.5,40.5,0,0,0,1.73-4.44c.42-1.21.64-1.94.27-2.45-.48-.66-1.69-.65-2.44-.48C10,19,9,21.41,7.08,26a30.11,30.11,0,0,0-1.6,7.13,2.51,2.51,0,0,0,.2,1.74c1.28,2,6.76.86,7.29-.65a5,5,0,0,0,.21-.9,3.3,3.3,0,0,0,0-1.39C13,31.22,11.61,30.91,10,31.09Z"/><path class="cls-3" d="M21.3,22.71a10,10,0,0,0,2.14,0c1.19-.14,2-.23,2.6-.89a2.19,2.19,0,0,0,.52-2.07c-.37-1.06-1.76-1.35-2.49-1.5a6.58,6.58,0,0,0-4.12.58c-2.18,1.11-3,3.18-4.09,5.8C15,26.84,12.54,32.89,15,35.08a3.84,3.84,0,0,0,1.72.77c1.74.46,4.3.27,5.59-1.43.15-.2,1.05-1.39.64-2.36s-2.43-1.61-4.87-.88L19,28.69a4.55,4.55,0,0,0,2.55.08,3.43,3.43,0,0,0,2.32-1.69A1.6,1.6,0,0,0,24,26c-.27-.84-1.76-1.34-3.71-1.08Z"/><path class="cls-3" d="M31.66,29.32a4,4,0,0,1-1.33,2.22c-.24.19-.89.71-1.33.5a1,1,0,0,1-.42-.79c-.49-3,1.66-7,1.66-7,.66-1.23,1.32-2.17,2.24-2.33.08,0,.65-.11.83.15s-.1.52-.12,1.26a1.53,1.53,0,0,0,.07.7c.33.71,1.61.72,1.72.72a3,3,0,0,0,2.07-.89,3.37,3.37,0,0,0,.64-3.54c-.8-1.86-3.62-2.39-5.54-2.08-3.72.62-5.61,4.7-6.53,6.67-.77,1.66-3.37,7.28-.75,9.89,1.65,1.63,4.54,1.29,6.15.71,3.45-1.23,4.41-4.79,5-7.09a2.21,2.21,0,0,0,0-1.66c-.75-1.33-3.82-1.52-5.12-.16a1.83,1.83,0,0,0-.58,1.55C30.53,29,31.61,29.31,31.66,29.32Z"/><path class="cls-3" d="M49.05,19.61c-1.28-1.5-3.72-1.56-5.31-1.15-4.11,1.08-5.63,6.2-6.27,8.32C36.8,29.06,35.61,33,37.7,35c1.88,1.75,5.19.72,5.34.67,4.39-1.43,5.63-7.08,6.3-10.09C49.87,23.15,50.3,21.06,49.05,19.61Zm-5.22,9.6c-.45,1.39-.84,2.65-1.74,2.84A1.3,1.3,0,0,1,41,31.79c-.47-.41-.47-1.18,1.6-7.21.39-1.15.82-2.33,1.78-2.59a1.31,1.31,0,0,1,1.11.12C46.14,22.62,45.56,23.85,43.83,29.21Z"/></g></svg>